# xmcd CD database file
#
# Track frame offsets:
#	150
#	35294
#	59012
#	83106
#	128920
#	168749
#	203046
#	228175
#
# Disc length: 3693 seconds
#
# Revision: 0
# Processed by: cddbd v1.5.1PL0 Copyright (c) Steve Scherf et al.
# Submitted via: CDex 1.51
#
DISCID=670e6b08
DTITLE=CALVIN EDWARDS - JUST SWING
DYEAR=2001
DGENRE=Jazz
TTITLE0=ISN`T SHE LOVELY(可愛いアイシャ）-STEVIE WONDER
TTITLE1=CALVIN`S BOP
TTITLE2=MY FUNNY VALENTINE
TTITLE3=ON THE GINZA AROUND MIDNITE
TTITLE4=WAKE UP CALL
TTITLE5=SAMO
TTITLE6=WALKIN
TTITLE7=SEASIDE AT MONTEREY
EXTD=YEAR: 2001
EXTT0=
EXTT1=
EXTT2=
EXTT3=
EXTT4=
EXTT5=
EXTT6=
EXTT7=
PLAYORDER=
